<svg width="77" height="77" viewBox="0 0 77 77" fill="none" xmlns="http://www.w3.org/2000/svg">
<path d="M47.7064 17.77L47.7063 17.77L47.7098 17.7638C48.4362 16.4633 49.0043 15.54 49.457 14.948C49.682 14.6538 49.8969 14.4166 50.1069 14.2555C50.3085 14.1008 50.5865 13.955 50.9065 14.0126L50.9206 14.0152L50.9346 14.0185C51.0279 14.0409 51.1066 14.0833 51.1538 14.1107C51.2088 14.1427 51.2652 14.181 51.3205 14.2213C51.4314 14.3022 51.5621 14.4094 51.7066 14.5351C51.997 14.7876 52.368 15.1371 52.7914 15.5553C53.6394 16.393 54.7152 17.5236 55.8087 18.7457L55.8096 18.7468C57.6464 20.8119 58.6545 21.9717 59.1203 22.6987C59.3512 23.0593 59.5084 23.3999 59.4997 23.7454C59.4902 24.1185 59.2912 24.3773 59.1341 24.5583L59.1235 24.5705L59.1122 24.5819C58.9575 24.7385 58.7093 24.9734 58.3419 24.9979C57.987 25.0216 57.6639 24.8409 57.3632 24.6145C56.7514 24.1537 55.7975 23.1521 54.117 21.3579L54.115 21.3558C53.1263 20.2881 52.216 19.3464 51.546 18.6891C51.2838 18.4319 51.0621 18.222 50.8889 18.0663C50.8311 18.1659 50.7657 18.2797 50.6937 18.4054C50.5115 18.7238 50.2903 19.114 50.0501 19.5377C49.9463 19.7208 49.839 19.9101 49.7297 20.1026C49.2029 21.0977 48.8091 21.7614 48.4053 22.1672C48.1912 22.3823 47.964 22.5368 47.7026 22.6324C47.4459 22.7264 47.186 22.7524 46.925 22.7524C46.6139 22.7524 46.3039 22.7201 46.063 22.6383C45.9488 22.5995 45.7932 22.5312 45.6725 22.4009C45.6071 22.3302 45.5442 22.2327 45.5156 22.1077C45.4862 21.9797 45.5005 21.856 45.5401 21.749L45.547 21.7305L45.5553 21.7126C45.5981 21.62 45.8293 21.2 46.1512 20.6152C46.1888 20.547 46.2276 20.4765 46.2675 20.4041C46.6586 19.6933 47.173 18.7572 47.7064 17.77ZM50.561 17.7959C50.561 17.7959 50.5622 17.7967 50.5644 17.7979C50.5621 17.7964 50.5609 17.7958 50.561 17.7959Z" fill="#2A3033" stroke="#2A3033"/>
<path d="M48.0421 25.9256L48.0422 25.9256C46.4744 28.0983 45.6489 29.2185 45.117 29.8017C44.8531 30.0912 44.6965 30.2079 44.592 30.2605C44.5061 30.3038 44.4296 30.3182 44.265 30.3182C44.1715 30.3182 44.0951 30.3164 44.0329 30.3134C44.0536 30.2726 44.0792 30.225 44.1108 30.1696C44.2477 29.9302 44.4578 29.6124 44.7525 29.1856L44.7552 29.1817L44.7552 29.1817C45.0491 28.7472 45.281 28.3939 45.4396 28.1125C45.5192 27.9713 45.5872 27.8363 45.6362 27.7096C45.6836 27.5871 45.7251 27.4425 45.7251 27.2898C45.7251 27.1222 45.6742 26.9445 45.5411 26.797C45.4192 26.6618 45.267 26.5956 45.1458 26.5598C44.9182 26.4925 44.6252 26.4848 44.341 26.4848C43.901 26.4848 43.505 26.5824 43.1464 26.8214C42.7984 27.0534 42.5241 27.3932 42.2768 27.8087L48.0421 25.9256ZM48.0421 25.9256L48.0458 25.9207M48.0421 25.9256L48.0458 25.9207M48.0458 25.9207L48.1777 25.7424M48.0458 25.9207L48.1777 25.7424M21.6141 25.7424L23.1052 27.7303L25.0466 30.3182H32.7436C33.2459 30.3182 33.7169 30.3187 34.1591 30.3193C35.6725 30.321 36.8476 30.3224 37.7798 30.2998C38.9923 30.2704 39.7412 30.2005 40.2579 30.0575C40.7398 29.9241 41.0116 29.7295 41.2705 29.4134C41.4924 29.1425 41.6929 28.8007 41.9765 28.3171C42.067 28.1629 42.1658 27.9944 42.2765 27.8091L21.6141 25.7424ZM21.6141 25.7424H34.911H48.1777M21.6141 25.7424H48.1777M17.6036 23.8334L17.6035 23.8334L17.6053 23.8292C17.7068 23.5874 17.9197 23.4688 18.0781 23.4057C18.2461 23.3388 18.4595 23.2922 18.713 23.2552C19.2253 23.1804 20.023 23.1288 21.2356 23.0917C23.669 23.0174 27.8604 23 34.9871 23C40.9 23 45.1065 23.0261 47.8598 23.0872C49.2352 23.1178 50.2555 23.1572 50.9469 23.2071C51.2908 23.232 51.5655 23.2602 51.7661 23.2936C51.8648 23.31 51.9614 23.3302 52.0452 23.3573C52.0869 23.3707 52.1388 23.3901 52.1913 23.4187C52.2363 23.4433 52.3264 23.4981 52.397 23.6016L52.397 23.6016L52.4022 23.6095C52.5097 23.7736 52.5056 23.9455 52.4946 24.0393C52.4826 24.1421 52.4513 24.2418 52.4175 24.3293C52.3492 24.5063 52.2343 24.7246 52.0799 24.9847C51.768 25.5102 51.2466 26.2847 50.4615 27.388C48.8883 29.5988 46.2224 33.1764 41.9644 38.8208L41.9643 38.821C39.3621 42.2677 37.8235 44.2738 36.868 45.4178C36.3928 45.987 36.0443 46.3643 35.7698 46.6016C35.5029 46.8324 35.2292 47 34.911 47C34.784 47 34.6731 46.9631 34.5973 46.9316C34.5153 46.8975 34.4352 46.8529 34.3606 46.8055C34.2112 46.7105 34.0495 46.5822 33.887 46.4357C33.562 46.1426 33.1985 45.7441 32.8759 45.3014C31.5394 43.569 27.8251 38.6674 24.4118 34.1469C22.703 31.8838 21.0689 29.7152 19.8452 28.0861C19.2334 27.2716 18.724 26.5917 18.359 26.102C18.0046 25.6265 17.7669 25.3048 17.7206 25.2321L17.7206 25.2321L17.7181 25.2282C17.5894 25.0218 17.5253 24.7742 17.5063 24.5481C17.4873 24.3213 17.5093 24.0638 17.6036 23.8334Z" fill="#2A3033" stroke="#2A3033"/>
<path d="M34.5181 62.4695V62.4694V62.4695ZM34.5142 62.9694L34.5115 62.9694C30.4279 62.9153 28.0323 62.87 26.6587 62.7786C25.9809 62.7335 25.5079 62.675 25.1959 62.5832C25.0411 62.5376 24.8736 62.4696 24.7397 62.3495C24.5819 62.2081 24.5 62.0204 24.5 61.8189C24.5 61.6833 24.5326 61.5401 24.6158 61.4059C24.6962 61.276 24.8064 61.183 24.9186 61.1152C25.1291 60.9882 25.4109 60.9128 25.7326 60.8565C26.3903 60.7414 27.4644 60.6685 29.1402 60.5965C29.1402 60.5965 29.1402 60.5965 29.1403 60.5965C29.1403 60.5965 29.1404 60.5965 29.1404 60.5965L32.8327 60.4362L32.9324 55.125C32.9506 53.532 32.9868 52.0279 33.0323 50.8884C33.055 50.319 33.0802 49.837 33.1068 49.4792C33.1201 49.3009 33.1341 49.1482 33.149 49.0287C33.1564 48.9693 33.1647 48.9127 33.1743 48.8627C33.1815 48.8253 33.1948 48.7608 33.2205 48.6965C33.4431 48.117 34.0925 47.9237 34.5819 48.0285C34.6957 48.0505 34.8264 48.0914 34.9543 48.1762C35.087 48.2641 35.1894 48.3812 35.2686 48.518C35.4148 48.7705 35.4964 49.1178 35.5564 49.5578C35.6785 50.454 35.742 52.0219 35.8141 54.7574C35.8141 54.7575 35.8141 54.7577 35.8141 54.7579L35.9811 60.4275L39.7749 60.5238C39.7755 60.5238 39.7761 60.5238 39.7766 60.5239C41.7253 60.5596 42.8379 60.5948 43.4563 60.7134C43.7604 60.7717 44.0617 60.8686 44.266 61.0973C44.4867 61.3443 44.5 61.6383 44.5 61.8189C44.5 61.9074 44.4996 62.0641 44.4448 62.2217C44.3802 62.4073 44.2564 62.5562 44.0813 62.6627C43.925 62.7579 43.7375 62.8136 43.5378 62.8523C43.333 62.892 43.0791 62.9203 42.7668 62.9412C41.5302 63.0242 39.1325 63.0055 34.5142 62.9694Z" fill="#2A3033" stroke="#2A3033"/>
</svg>
