<svg width="78" height="77" viewBox="0 0 78 77" fill="none" xmlns="http://www.w3.org/2000/svg">
<path d="M48.2625 17.77L48.2625 17.77L48.2659 17.7638C48.9924 16.4633 49.5605 15.54 50.0132 14.948C50.2381 14.6538 50.4531 14.4166 50.663 14.2555C50.8646 14.1008 51.1426 13.955 51.4626 14.0126L51.4768 14.0152L51.4907 14.0185C51.584 14.0409 51.6627 14.0833 51.7099 14.1107C51.7649 14.1427 51.8214 14.181 51.8766 14.2213C51.9875 14.3022 52.1183 14.4094 52.2628 14.5351C52.5531 14.7876 52.9241 15.1371 53.3475 15.5553C54.1956 16.393 55.2713 17.5236 56.3648 18.7457L56.3658 18.7468C58.2025 20.8119 59.2106 21.9717 59.6764 22.6987C59.9074 23.0593 60.0645 23.3999 60.0558 23.7454C60.0464 24.1185 59.8474 24.3773 59.6902 24.5583L59.6797 24.5705L59.6684 24.5819C59.5137 24.7385 59.2655 24.9734 58.8981 24.9979C58.5432 25.0216 58.2201 24.8409 57.9193 24.6145C57.3076 24.1537 56.3537 23.1521 54.6731 21.3579L54.6712 21.3558C53.6824 20.2881 52.7722 19.3464 52.1021 18.6891C51.8399 18.4319 51.6182 18.222 51.445 18.0663C51.3873 18.1659 51.3218 18.2797 51.2498 18.4054C51.0676 18.7238 50.8464 19.114 50.6062 19.5377C50.5025 19.7208 50.3951 19.9101 50.2859 20.1026C49.7591 21.0977 49.3653 21.7614 48.9614 22.1672C48.7474 22.3823 48.5202 22.5368 48.2588 22.6324C48.0021 22.7264 47.7421 22.7524 47.4811 22.7524C47.17 22.7524 46.8601 22.7201 46.6191 22.6383C46.5049 22.5995 46.3494 22.5312 46.2287 22.4009C46.1633 22.3302 46.1004 22.2327 46.0717 22.1077C46.0424 21.9797 46.0566 21.856 46.0963 21.749L46.1031 21.7305L46.1114 21.7126C46.1543 21.62 46.3855 21.2 46.7074 20.6152C46.745 20.547 46.7837 20.4765 46.8236 20.4041C47.2147 19.6933 47.7292 18.7572 48.2625 17.77ZM51.1171 17.7959C51.1171 17.7959 51.1183 17.7967 51.1206 17.7979C51.1182 17.7964 51.1171 17.7958 51.1171 17.7959Z" fill="#FF7F1D" stroke="#FF7F1D"/>
<path d="M48.5983 25.9256L48.5983 25.9256C47.0306 28.0983 46.205 29.2185 45.6732 29.8017C45.4093 30.0912 45.2527 30.2079 45.1482 30.2605C45.0623 30.3038 44.9857 30.3182 44.8211 30.3182C44.7277 30.3182 44.6512 30.3164 44.589 30.3134C44.6097 30.2726 44.6353 30.225 44.667 30.1696C44.8039 29.9302 45.014 29.6124 45.3087 29.1856L45.3113 29.1817L45.3113 29.1817C45.6052 28.7472 45.8371 28.3939 45.9958 28.1125C46.0754 27.9713 46.1434 27.8363 46.1923 27.7096C46.2397 27.5871 46.2812 27.4425 46.2812 27.2898C46.2812 27.1222 46.2303 26.9445 46.0973 26.797C45.9753 26.6618 45.8231 26.5956 45.702 26.5598C45.4744 26.4925 45.1814 26.4848 44.8972 26.4848C44.4571 26.4848 44.0612 26.5824 43.7025 26.8214C43.3545 27.0534 43.0803 27.3932 42.8329 27.8087L48.5983 25.9256ZM48.5983 25.9256L48.6019 25.9207M48.5983 25.9256L48.6019 25.9207M48.6019 25.9207L48.7339 25.7424M48.6019 25.9207L48.7339 25.7424M22.1702 25.7424L23.6614 27.7303L25.6027 30.3182H33.2998C33.8021 30.3182 34.2731 30.3187 34.7152 30.3193C36.2286 30.321 37.4038 30.3224 38.336 30.2998C39.5484 30.2704 40.2973 30.2005 40.814 30.0575C41.296 29.9241 41.5678 29.7295 41.8267 29.4134C42.0486 29.1425 42.249 28.8007 42.5327 28.3171C42.6231 28.1629 42.722 27.9944 42.8327 27.8091L22.1702 25.7424ZM22.1702 25.7424H35.4672H48.7339M22.1702 25.7424H48.7339M18.1597 23.8334L18.1597 23.8334L18.1614 23.8292C18.2629 23.5874 18.4759 23.4688 18.6343 23.4057C18.8023 23.3388 19.0156 23.2922 19.2692 23.2552C19.7815 23.1804 20.5792 23.1288 21.7917 23.0917C24.2251 23.0174 28.4166 23 35.5432 23C41.4561 23 45.6627 23.0261 48.416 23.0872C49.7914 23.1178 50.8116 23.1572 51.503 23.2071C51.847 23.232 52.1216 23.2602 52.3222 23.2936C52.4209 23.31 52.5175 23.3302 52.6013 23.3573C52.643 23.3707 52.695 23.3901 52.7474 23.4187C52.7925 23.4433 52.8825 23.4981 52.9531 23.6016L52.9532 23.6016L52.9584 23.6095C53.0658 23.7736 53.0618 23.9455 53.0508 24.0393C53.0387 24.1421 53.0074 24.2418 52.9736 24.3293C52.9053 24.5063 52.7905 24.7246 52.6361 24.9847C52.3241 25.5102 51.8028 26.2847 51.0177 27.388C49.4445 29.5988 46.7785 33.1764 42.5206 38.8208L42.5205 38.821C39.9183 42.2677 38.3796 44.2738 37.4242 45.4178C36.9489 45.987 36.6004 46.3643 36.326 46.6016C36.059 46.8324 35.7854 47 35.4672 47C35.3401 47 35.2292 46.9631 35.1534 46.9316C35.0714 46.8975 34.9914 46.8529 34.9168 46.8055C34.7673 46.7105 34.6056 46.5822 34.4431 46.4357C34.1182 46.1426 33.7547 45.7441 33.432 45.3014C32.0956 43.569 28.3813 38.6674 24.968 34.1469C23.2591 31.8838 21.625 29.7152 20.4014 28.0861C19.7896 27.2716 19.2801 26.5917 18.9152 26.102C18.5607 25.6265 18.323 25.3048 18.2767 25.2321L18.2767 25.2321L18.2742 25.2282C18.1456 25.0218 18.0814 24.7742 18.0624 24.5481C18.0434 24.3213 18.0654 24.0638 18.1597 23.8334Z" fill="#FF7F1D" stroke="#FF7F1D"/>
<path d="M35.0742 62.4695V62.4694V62.4695ZM35.0703 62.9694L35.0676 62.9694C30.984 62.9153 28.5885 62.87 27.2148 62.7786C26.5371 62.7335 26.064 62.675 25.752 62.5832C25.5973 62.5376 25.4298 62.4696 25.2959 62.3495C25.1381 62.2081 25.0562 62.0204 25.0562 61.8189C25.0562 61.6833 25.0887 61.5401 25.1719 61.4059C25.2524 61.276 25.3625 61.183 25.4748 61.1152C25.6853 60.9882 25.967 60.9128 26.2888 60.8565C26.9465 60.7414 28.0205 60.6685 29.6964 60.5965C29.6964 60.5965 29.6964 60.5965 29.6964 60.5965C29.6965 60.5965 29.6965 60.5965 29.6966 60.5965L33.3889 60.4362L33.4886 55.125C33.5067 53.532 33.543 52.0279 33.5885 50.8884C33.6112 50.319 33.6363 49.837 33.6629 49.4792C33.6762 49.3009 33.6902 49.1482 33.7051 49.0287C33.7126 48.9693 33.7209 48.9127 33.7305 48.8627C33.7376 48.8253 33.7509 48.7608 33.7767 48.6965C33.9993 48.117 34.6487 47.9237 35.138 48.0285C35.2518 48.0505 35.3826 48.0914 35.5104 48.1762C35.6431 48.2641 35.7455 48.3812 35.8247 48.518C35.9709 48.7705 36.0526 49.1178 36.1125 49.5578C36.2347 50.454 36.2982 52.0219 36.3703 54.7574C36.3703 54.7575 36.3703 54.7577 36.3703 54.7579L36.5372 60.4275L40.331 60.5238C40.3316 60.5238 40.3322 60.5238 40.3328 60.5239C42.2815 60.5596 43.3941 60.5948 44.0125 60.7134C44.3166 60.7717 44.6179 60.8686 44.8222 61.0973C45.0428 61.3443 45.0562 61.6383 45.0562 61.8189C45.0562 61.9074 45.0558 62.0641 45.0009 62.2217C44.9363 62.4073 44.8125 62.5562 44.6375 62.6627C44.4811 62.7579 44.2937 62.8136 44.094 62.8523C43.8892 62.892 43.6352 62.9203 43.3229 62.9412C42.0864 63.0242 39.6887 63.0055 35.0703 62.9694Z" fill="#FF7F1D" stroke="#FF7F1D"/>
</svg>
