<svg width="77" height="77" viewBox="0 0 77 77" fill="none" xmlns="http://www.w3.org/2000/svg">
<path d="M47.1567 17.5829C45.0713 17.8312 41.6127 18.4769 39.5273 18.9735C33.7289 20.4138 29.3039 21.0098 20.9624 21.4071C14.2485 21.7548 13.0787 21.9534 11.4002 22.9467C10.0778 23.7413 9.36568 24.5856 9.16223 25.5293C8.95878 26.6219 8.09411 27.5159 6.0596 28.8071C-0.908595 33.3266 -1.92585 39.187 3.31301 44.3025C5.75442 46.6367 10.2812 49.0703 14.8589 50.5603C16.8425 51.1562 17.6054 51.7025 18.1141 52.8448C20.9624 59.2019 40.4428 61.9335 52.1921 57.6623C55.0404 56.6193 58.6008 53.8381 59.1094 52.2985C59.3129 51.7025 60.4319 51.0569 62.0595 50.5106C65.7216 49.3683 70.401 47.0341 72.6898 45.1965C73.7579 44.3522 75.2329 42.4649 75.945 41.0246C77.1657 38.5911 77.2166 38.1938 76.6571 36.0085C75.8433 32.8796 74.2157 30.8434 70.5536 28.6581C68.1121 27.2179 67.5526 26.6219 67.807 25.8769C68.3156 24.3373 67.5018 22.1521 65.925 20.6125C63.1276 17.9306 54.9896 16.6393 47.1567 17.5829ZM52.0904 22.1521C51.9887 22.4501 50.8188 23.344 49.4964 24.1387L47.1058 25.6286L45.3256 23.94C44.3592 23.046 43.5963 22.1521 43.5963 22.0031C43.5963 21.6058 46.9532 20.1655 48.4283 19.8675C49.649 19.6688 52.3956 21.3574 52.0904 22.1521ZM56.5154 19.9668C56.8715 20.5131 55.3965 21.1091 54.7352 20.7118C54.4809 20.5628 54.2775 20.2648 54.2775 19.9668C54.2775 19.3709 56.1594 19.3709 56.5154 19.9668ZM64.0431 22.4501C65.6199 23.8407 65.6707 23.94 65.0604 25.8769C64.1448 28.8568 60.381 32.6313 56.4646 34.5186C53.5654 35.9092 52.4464 36.1575 48.3774 36.3065C42.6299 36.5548 38.154 35.6609 29.7108 32.6313C26.4047 31.4394 21.5219 30.0488 18.877 29.6018C16.2321 29.1548 14.0959 28.6581 14.0959 28.4595C14.0959 28.3105 15.1132 27.6648 16.3847 27.0689L18.6736 25.9763L20.6572 27.7145C21.7253 28.6581 22.946 29.4528 23.4038 29.4528C24.828 29.4528 24.7771 28.0125 23.2003 26.4729L21.6236 24.983L23.4547 24.238C25.9978 23.195 27.5745 23.2944 29.1513 24.685L30.5754 25.8273L28.4392 27.2179C27.2185 28.0125 26.303 28.9561 26.303 29.5024C26.303 30.7937 27.7271 30.6944 29.9651 29.2045C30.9823 28.5091 32.1013 27.9628 32.4065 27.9628C33.0677 27.9628 35.0514 30.0488 36.5264 32.2837C37.6962 34.1213 39.5273 34.5186 39.5273 32.979C39.5273 32.4823 38.51 30.6944 37.2893 29.0555L35.0514 26.0756L37.9505 24.536L40.9006 23.046L42.8334 24.983C43.9015 26.0756 44.7153 27.0192 44.5627 27.1185C44.461 27.2179 43.4946 27.8138 42.4773 28.4098C41.3075 29.1051 40.5445 29.8998 40.5445 30.4957C40.5445 31.787 41.7144 31.6877 44.3084 30.1977L46.4955 28.9561L47.8688 31.4394C49.2421 33.9226 50.4628 34.5682 51.0223 33.1776C51.1748 32.7803 50.7171 31.4394 50.005 30.1481C49.2929 28.8568 48.6826 27.7642 48.6826 27.6649C48.6826 27.3669 53.9723 24.4863 54.5318 24.4863C54.837 24.4863 55.6508 25.3803 56.4137 26.4232C57.787 28.3105 57.787 28.3602 56.8206 29.2045C55.4982 30.3467 55.4982 31.936 56.7697 31.936C57.2784 31.936 57.9905 31.5884 58.3465 31.191C58.7025 30.7937 59.1603 30.4461 59.4146 30.4461C59.6689 30.4461 60.2793 30.0984 60.7879 29.6514C61.2457 29.2541 62.2121 28.5091 62.9241 27.9628C63.9414 27.2179 64.094 26.9199 63.5345 26.4232C63.0767 25.9266 62.5681 25.8769 61.3983 26.3239C60.025 26.8205 59.8215 26.7709 58.6008 25.2313C57.8887 24.2877 57.3292 23.344 57.3292 23.0957C57.3292 22.5991 60.6353 21.0595 61.7543 21.0595C62.1103 21.0098 63.1276 21.6554 64.0431 22.4501ZM35.9669 22.6984C35.9669 23.1454 32.7625 24.4366 32.3556 24.1883C31.5927 23.7413 31.847 23.0957 32.8134 22.8474C33.9832 22.5494 35.9669 22.4501 35.9669 22.6984ZM13.8416 25.6783C13.0278 26.3239 12.57 27.0689 12.7735 27.3669C13.2821 28.1615 12.3157 28.1118 11.6545 27.3172C10.9424 26.5226 11.451 25.7279 13.333 24.7843C15.3675 23.7413 15.6727 24.2877 13.8416 25.6783ZM70.0958 31.2904C72.7915 33.0286 74.826 36.4058 74.4191 38.4421C73.4527 43.2099 66.0776 47.5307 54.9387 49.8153C48.53 51.1562 35.4583 51.6529 28.5409 50.8582C15.3166 49.269 4.58458 44.6005 2.90611 39.634C2.04144 37.0515 2.70266 35.0649 5.29666 32.6313C7.73807 30.2971 9.00964 29.8501 9.00964 31.4394C9.00964 32.9293 10.0778 34.8166 11.3493 35.6609C12.0105 36.0582 14.9606 36.9521 17.8598 37.6474C24.5736 39.187 27.015 39.9817 32.4065 42.3656C38.2049 44.9481 41.9687 45.8421 47.055 45.8421C58.6517 45.8421 66.4845 40.7267 67.3492 32.6313C67.5018 31.1414 67.7561 29.9494 67.8578 29.9494C67.9596 29.9494 68.9768 30.5454 70.0958 31.2904ZM28.3375 53.2918C35.3057 54.1361 46.9532 53.8381 54.5318 52.4972L56.0577 52.2489L54.6335 53.4905C53.8706 54.1858 51.5818 55.2784 49.5472 55.8744C44.5627 57.414 32.203 57.5133 27.8289 56.073C22.4883 54.3348 19.0296 51.8019 22.8952 52.4972C23.7598 52.6462 26.2521 52.9938 28.3375 53.2918Z" fill="#2A3033"/>
</svg>
