<svg width="78" height="77" viewBox="0 0 78 77" fill="none" xmlns="http://www.w3.org/2000/svg">
<path d="M47.7128 17.5829C45.6275 17.8312 42.1688 18.4769 40.0834 18.9735C34.2851 20.4138 29.86 21.0098 21.5185 21.4071C14.8047 21.7548 13.6348 21.9534 11.9563 22.9467C10.6339 23.7413 9.92183 24.5856 9.71838 25.5293C9.51493 26.6219 8.65026 27.5159 6.61575 28.8071C-0.352443 33.3266 -1.3697 39.187 3.86916 44.3025C6.31058 46.6367 10.8374 49.0703 15.415 50.5603C17.3987 51.1562 18.1616 51.7025 18.6702 52.8448C21.5185 59.2019 40.999 61.9335 52.7483 57.6623C55.5966 56.6193 59.157 53.8381 59.6656 52.2985C59.869 51.7025 60.988 51.0569 62.6156 50.5106C66.2777 49.3683 70.9571 47.0341 73.2459 45.1965C74.3141 44.3522 75.7891 42.4649 76.5012 41.0246C77.7219 38.5911 77.7727 38.1938 77.2132 36.0085C76.3994 32.8796 74.7718 30.8434 71.1097 28.6581C68.6683 27.2179 68.1088 26.6219 68.3631 25.8769C68.8717 24.3373 68.0579 22.1521 66.4812 20.6125C63.6837 17.9306 55.5457 16.6393 47.7128 17.5829ZM52.6465 22.1521C52.5448 22.4501 51.375 23.344 50.0525 24.1387L47.662 25.6286L45.8818 23.94C44.9154 23.046 44.1525 22.1521 44.1525 22.0031C44.1525 21.6058 47.5094 20.1655 48.9844 19.8675C50.2051 19.6688 52.9517 21.3574 52.6465 22.1521ZM57.0716 19.9668C57.4276 20.5131 55.9526 21.1091 55.2914 20.7118C55.0371 20.5628 54.8336 20.2648 54.8336 19.9668C54.8336 19.3709 56.7155 19.3709 57.0716 19.9668ZM64.5993 22.4501C66.176 23.8407 66.2269 23.94 65.6165 25.8769C64.701 28.8568 60.9372 32.6313 57.0207 34.5186C54.1215 35.9092 53.0026 36.1575 48.9336 36.3065C43.1861 36.5548 38.7101 35.6609 30.2669 32.6313C26.9608 31.4394 22.078 30.0488 19.4332 29.6018C16.7883 29.1548 14.6521 28.6581 14.6521 28.4595C14.6521 28.3105 15.6693 27.6648 16.9409 27.0689L19.2297 25.9763L21.2134 27.7145C22.2815 28.6581 23.5022 29.4528 23.9599 29.4528C25.3841 29.4528 25.3332 28.0125 23.7565 26.4729L22.1798 24.983L24.0108 24.238C26.5539 23.195 28.1307 23.2944 29.7074 24.685L31.1316 25.8273L28.9954 27.2179C27.7747 28.0125 26.8591 28.9561 26.8591 29.5024C26.8591 30.7937 28.2833 30.6944 30.5212 29.2045C31.5385 28.5091 32.6575 27.9628 32.9627 27.9628C33.6239 27.9628 35.6075 30.0488 37.0825 32.2837C38.2524 34.1213 40.0834 34.5186 40.0834 32.979C40.0834 32.4823 39.0662 30.6944 37.8455 29.0555L35.6075 26.0756L38.5067 24.536L41.4567 23.046L43.3895 24.983C44.4576 26.0756 45.2714 27.0192 45.1188 27.1185C45.0171 27.2179 44.0507 27.8138 43.0335 28.4098C41.8636 29.1051 41.1007 29.8998 41.1007 30.4957C41.1007 31.787 42.2705 31.6877 44.8645 30.1977L47.0516 28.9561L48.4249 31.4394C49.7982 33.9226 51.0189 34.5682 51.5784 33.1776C51.731 32.7803 51.2732 31.4394 50.5612 30.1481C49.8491 28.8568 49.2387 27.7642 49.2387 27.6649C49.2387 27.3669 54.5285 24.4863 55.0879 24.4863C55.3931 24.4863 56.2069 25.3803 56.9699 26.4232C58.3432 28.3105 58.3432 28.3602 57.3768 29.2045C56.0543 30.3467 56.0543 31.936 57.3259 31.936C57.8345 31.936 58.5466 31.5884 58.9026 31.191C59.2587 30.7937 59.7165 30.4461 59.9708 30.4461C60.2251 30.4461 60.8354 30.0984 61.3441 29.6514C61.8018 29.2541 62.7682 28.5091 63.4803 27.9628C64.4975 27.2179 64.6501 26.9199 64.0906 26.4232C63.6329 25.9266 63.1243 25.8769 61.9544 26.3239C60.5811 26.8205 60.3777 26.7709 59.157 25.2313C58.4449 24.2877 57.8854 23.344 57.8854 23.0957C57.8854 22.5991 61.1915 21.0595 62.3105 21.0595C62.6665 21.0098 63.6837 21.6554 64.5993 22.4501ZM36.523 22.6984C36.523 23.1454 33.3187 24.4366 32.9118 24.1883C32.1488 23.7413 32.4032 23.0957 33.3696 22.8474C34.5394 22.5494 36.523 22.4501 36.523 22.6984ZM14.3978 25.6783C13.5839 26.3239 13.1262 27.0689 13.3296 27.3669C13.8383 28.1615 12.8719 28.1118 12.2107 27.3172C11.4986 26.5226 12.0072 25.7279 13.8891 24.7843C15.9236 23.7413 16.2288 24.2877 14.3978 25.6783ZM70.6519 31.2904C73.3477 33.0286 75.3822 36.4058 74.9753 38.4421C74.0089 43.2099 66.6338 47.5307 55.4948 49.8153C49.0861 51.1562 36.0144 51.6529 29.0971 50.8582C15.8728 49.269 5.14073 44.6005 3.46226 39.634C2.5976 37.0515 3.25881 35.0649 5.85281 32.6313C8.29422 30.2971 9.56579 29.8501 9.56579 31.4394C9.56579 32.9293 10.6339 34.8166 11.9055 35.6609C12.5667 36.0582 15.5167 36.9521 18.4159 37.6474C25.1298 39.187 27.5712 39.9817 32.9627 42.3656C38.761 44.9481 42.5248 45.8421 47.6111 45.8421C59.2078 45.8421 67.0407 40.7267 67.9054 32.6313C68.0579 31.1414 68.3123 29.9494 68.414 29.9494C68.5157 29.9494 69.533 30.5454 70.6519 31.2904ZM28.8936 53.2918C35.8618 54.1361 47.5094 53.8381 55.0879 52.4972L56.6138 52.2489L55.1897 53.4905C54.4267 54.1858 52.1379 55.2784 50.1034 55.8744C45.1188 57.414 32.7592 57.5133 28.385 56.073C23.0444 54.3348 19.5858 51.8019 23.4513 52.4972C24.316 52.6462 26.8083 52.9938 28.8936 53.2918Z" fill="#FF7F1D"/>
</svg>
