<svg width="78" height="79" viewBox="0 0 78 79" fill="none" xmlns="http://www.w3.org/2000/svg">
<path d="M57.424 1.23019C57.1671 1.39577 56.8299 1.65165 56.6853 1.80218C56.5408 1.9527 53.8108 7.4317 50.599 13.9794C47.4032 20.5121 44.609 26.1717 44.4163 26.548L44.063 27.2103L43.9345 26.6985C43.517 24.8922 41.7505 22.1678 39.9519 20.5723C38.4744 19.2627 37.6073 18.6907 35.9371 17.9682C31.1515 15.891 25.6754 16.3275 21.2592 19.1423C18.6095 20.8432 16.3773 23.7182 15.494 26.6082L15.1889 27.6016L14.3057 27.9177C10.7887 29.137 7.78571 31.741 6.13164 34.9923C5.48928 36.2416 4.83086 38.2736 4.83086 39.0262C4.83086 39.6885 4.67027 39.7638 3.11255 39.809C1.74753 39.8692 1.603 39.8993 1.15335 40.3057C0.494933 40.8927 0.430697 41.3744 0.719759 43.3462C2.43807 54.8611 8.52443 64.4946 17.7905 70.3499L18.6255 70.8616L18.6737 73.2098C18.7219 75.5278 18.7219 75.573 19.2037 76.3105C19.5088 76.7621 19.9905 77.2137 20.4723 77.4996L21.2592 77.9512L38.6671 77.9964C50.4063 78.0114 56.2839 77.9813 56.7014 77.8759C57.6007 77.6502 58.6124 76.8524 59.0781 76.0095C59.4475 75.3472 59.4957 75.0612 59.5438 73.3001C59.5759 72.2163 59.592 71.2229 59.592 71.0724C59.592 70.9369 60.2344 70.38 61.0855 69.808C64.3455 67.5652 66.8667 65.3074 69.0989 62.5829C73.3867 57.3448 76.2452 50.7218 77.3372 43.5569C77.6744 41.254 77.6584 41.0884 77.0321 40.4261C76.4861 39.8692 76.47 39.8692 74.9765 39.809C73.4027 39.7638 73.2421 39.6885 73.2421 39.0262C73.2421 37.4759 71.6041 33.8332 70.2873 32.4484C69.6289 31.756 68.2639 32.2226 68.2639 33.1408C68.2639 33.3516 68.569 33.9537 68.9223 34.5106C69.9501 36.0158 70.5442 37.4909 70.8975 39.3122L70.9939 39.809L69.8537 39.7638L68.7135 39.7186L68.4084 38.6198C67.5251 35.3385 64.6506 32.599 61.1979 31.7259C59.8329 31.3948 57.4401 31.3948 56.0751 31.741C55.0152 31.9969 53.7626 32.5237 52.9757 33.0355C52.7509 33.201 52.4779 33.3215 52.3976 33.3215C52.3012 33.3215 51.964 32.9753 51.6267 32.5538L51.0165 31.7711L51.4983 31.4249C52.2691 30.8378 54.4531 29.8896 55.6576 29.6186C57.151 29.2875 59.9614 29.2875 61.4067 29.6036C62.0009 29.739 63.0929 30.1003 63.8316 30.4013C65.0681 30.8981 65.2127 30.9282 65.6302 30.7475C66.1601 30.5067 66.4331 29.9197 66.2886 29.3778C66.0959 28.6703 62.9323 27.4511 60.6358 27.1802C60.122 27.12 59.6884 27.0146 59.6884 26.9544C59.7044 26.8791 62.868 22.7097 66.7383 17.6973C70.6085 12.6849 73.8845 8.37998 74.013 8.13914C74.286 7.62737 74.1896 6.69414 73.8363 6.16731C73.6918 5.97163 72.9691 5.42975 72.2144 4.94808C70.8815 4.10516 70.8333 4.0901 69.9501 4.15031C69.2756 4.21052 68.9544 4.31589 68.6653 4.58683C68.4566 4.78251 64.3776 10.3368 59.592 16.9146C54.8064 23.4924 50.6311 29.1068 50.3099 29.3778C48.8646 30.597 48.3828 31.6055 58.5321 12.3387C62.9805 3.89443 62.9965 3.84927 62.306 2.82572C62.0651 2.43436 61.6154 2.14837 60.5877 1.68175C58.9175 0.944196 58.0985 0.823783 57.424 1.23019ZM59.5438 3.7138L60.2344 4.04495L53.7144 16.3877C50.1493 23.1612 47.1945 28.7305 47.1623 28.7606C47.066 28.851 46.263 28.4596 46.263 28.3392C46.263 28.2639 48.8004 23.0408 51.8998 16.7339C55.0152 10.412 57.7452 4.82767 58.0022 4.30084C58.243 3.78907 58.5482 3.36761 58.6606 3.36761C58.773 3.38266 59.1745 3.53318 59.5438 3.7138ZM71.5881 7.4919C71.5399 7.58222 68.1514 12.0377 64.0243 17.3661L56.5408 27.0748L55.786 27.2554C55.3685 27.3608 54.9991 27.421 54.967 27.3909C54.9188 27.3307 68.7617 8.21441 69.8216 6.85971L70.207 6.37804L70.9297 6.84466C71.3311 7.10054 71.6202 7.38654 71.5881 7.4919ZM31.4888 19.0369C34.1706 19.4433 36.5152 20.5572 38.3941 22.3183C39.711 23.5526 40.6103 24.8019 41.2205 26.262L41.6059 27.1952L40.8512 27.0899C40.4497 27.0447 39.8876 26.9995 39.6146 26.9995C39.165 26.9995 39.0686 26.9092 38.5708 25.976C37.8 24.5611 35.9371 22.8752 34.3633 22.1377C32.7735 21.4001 31.3764 21.084 29.7223 21.084C27.9879 21.084 26.928 21.3098 25.2418 22.0624C24.1659 22.5441 23.6359 22.9053 22.5921 23.8837C21.7731 24.6514 21.0826 25.4642 20.7614 26.0362L20.2475 26.9544L19.0912 27.0447C18.4489 27.0899 17.9029 27.1049 17.8708 27.0748C17.8226 27.0447 18.1759 26.2921 18.6416 25.404C19.3803 23.9891 19.6533 23.6278 20.938 22.4237C22.5279 20.9486 23.6359 20.2562 25.3542 19.6691C27.4259 18.9466 29.5135 18.7359 31.4888 19.0369ZM30.8464 23.4021C32.0508 23.5676 33.6407 24.2299 34.5882 24.9223C35.1663 25.3589 36.6277 27.0447 36.6277 27.2855C36.6277 27.3307 36.1619 27.4963 35.5838 27.6468L34.5239 27.9027L33.6086 27.0146C32.4523 25.9158 31.3121 25.4642 29.5938 25.4642C28.0682 25.4642 26.7193 26.0513 25.6272 27.1802L24.8885 27.9478L23.8929 27.6769C23.3469 27.5264 22.8651 27.3758 22.833 27.3608C22.6885 27.2554 23.6681 25.9459 24.3746 25.3287C25.8039 24.0644 27.3456 23.4623 29.5617 23.2666C29.6902 23.2515 30.2683 23.3118 30.8464 23.4021ZM31.264 28.1435C32.1151 28.5951 32.2757 28.9563 31.7778 29.2574C31.5851 29.3778 31.0231 29.7842 30.5413 30.1454L29.6902 30.7927L29.2566 30.4766C29.0318 30.296 28.4536 29.9046 28.004 29.6036C27.5383 29.3025 27.1529 29.0165 27.1529 28.9413C27.1529 28.6854 28.3894 27.9027 28.9996 27.7823C29.8347 27.6016 30.4449 27.707 31.264 28.1435ZM22.3191 29.6186C25.5309 30.3261 28.7427 32.599 30.3486 35.3234C30.9749 36.3921 31.81 38.7402 31.81 39.4327C31.81 39.7789 31.7618 39.7939 30.7019 39.7939H29.6099L29.4011 38.8757C29.1763 37.8973 28.3412 36.1212 27.7792 35.4438C27.0083 34.5256 25.5951 33.2763 24.7601 32.8097C24.2622 32.5237 23.2826 32.1022 22.576 31.8764C21.484 31.5302 21.0344 31.47 19.5248 31.47C16.5539 31.4851 14.4181 32.313 12.3465 34.2547C10.9333 35.5793 9.92156 37.2802 9.60038 38.8607L9.40767 39.7939H8.26748H7.12729L7.27183 38.966C7.6733 36.5426 9.31132 33.8031 11.2866 32.2227C13.3582 30.582 15.1728 29.8294 18.1598 29.3477C18.8182 29.2423 21.3556 29.4079 22.3191 29.6186ZM43.0512 29.7089C46.2952 30.5519 49.2179 32.7194 50.7274 35.3987C51.2895 36.4072 51.964 38.2435 52.1085 39.1617L52.2049 39.809L51.0647 39.7638L49.9084 39.7186L49.6997 38.8155C48.6398 33.9988 43.3242 30.6873 38.089 31.5754C36.451 31.8463 34.4597 32.7194 33.3677 33.6225C32.9341 33.9838 32.5326 34.2095 32.4684 34.1343C32.4041 34.059 32.1151 33.6677 31.826 33.2613L31.3121 32.5237L31.6815 32.1624C32.7414 31.0937 35.7284 29.7842 37.9766 29.4079C39.165 29.2122 41.6702 29.3627 43.0512 29.7089ZM21.7089 33.9988C22.8169 34.2848 23.6199 34.7213 24.5513 35.504C25.836 36.5878 26.6711 37.8672 27.0565 39.3724L27.1529 39.7939H25.9966H24.8243L24.5192 39.0262C24.1659 38.078 23.0257 36.8888 21.9979 36.3921C19.1876 35.0675 15.6546 36.2717 14.4502 38.951L14.0808 39.7939H12.9728H11.8647L11.9771 39.2972C12.1698 38.3489 13.2297 36.5727 14.0487 35.79C15.0604 34.8568 16.9072 33.9687 18.2401 33.7881C19.3482 33.6376 20.6329 33.7128 21.7089 33.9988ZM41.8468 33.9537C44.4163 34.5708 46.8572 36.934 47.3069 39.2219L47.4193 39.7939H46.3112H45.2032L44.8338 38.9811C43.2921 35.489 38.4584 34.7364 35.7284 37.5812C35.3429 37.9876 34.8933 38.6499 34.7488 39.0563C34.4276 39.8842 34.2188 40.0046 34.2188 39.3724C34.2188 39.1467 34.0743 38.4242 33.9137 37.7619L33.5925 36.5577L34.267 35.9104C36.2583 33.9838 39.0204 33.2763 41.8468 33.9537ZM60.7964 33.9988C63.2695 34.6461 65.6462 36.9942 66.0959 39.237L66.2083 39.7939H65.1002H63.9922L63.6228 38.9811C63.0126 37.5662 61.6957 36.4373 60.2022 36.0158C59.9132 35.9255 59.1584 35.8653 58.5321 35.8653C57.1832 35.8653 55.9787 36.3018 54.951 37.1598C54.4852 37.5511 54.2765 37.6565 54.2283 37.521C53.6984 36.0911 53.4896 35.504 53.4896 35.4739C53.4896 35.4589 53.8268 35.2331 54.2444 34.9621C56.1233 33.7429 58.4679 33.3967 60.7964 33.9988ZM21.195 38.5596C21.4037 38.7101 21.757 39.0413 21.9819 39.3122L22.3833 39.7939H19.5409H16.7145L16.9072 39.4176C17.1481 38.9209 18.1919 38.2586 18.9307 38.1382C19.6694 38.0177 20.6811 38.2134 21.195 38.5596ZM41.3811 38.5295C41.9432 38.8306 42.5695 39.4477 42.5695 39.7186C42.5695 39.7638 41.349 39.7939 39.8395 39.7939C38.346 39.7939 37.1094 39.7337 37.1094 39.6584C37.1094 39.4025 37.7839 38.7252 38.2817 38.4844C39.4219 37.9274 40.2891 37.9425 41.3811 38.5295ZM60.2986 38.5747C60.6198 38.7704 60.9891 39.1166 61.1176 39.3574L61.3746 39.7939H58.6285C57.0707 39.7939 55.8984 39.7337 55.8984 39.6584C55.8984 39.4025 56.7496 38.5596 57.1671 38.4091C58.3555 37.9575 59.319 38.0177 60.2986 38.5747ZM75.105 42.3829C75.0568 42.5786 74.9444 43.2409 74.8481 43.858C74.2539 47.7415 72.7925 52.0765 70.8012 55.8245C68.2157 60.7014 63.944 65.2622 59.0942 68.363L57.8898 69.1457H43.3403H28.7748L28.4536 69.537C27.9076 70.1843 28.0682 70.8315 28.8712 71.2229C29.1281 71.3583 32.8538 71.4035 43.1155 71.4035H57.0226V73.1195C57.0226 74.0677 56.9744 74.9558 56.9262 75.0913C56.6372 75.7837 56.9744 75.7686 39.0365 75.7686C26.5105 75.7686 22.0622 75.7235 21.8052 75.588C21.1307 75.2569 21.0665 75.016 21.0504 73.1797V71.4336L22.6724 71.3734C24.1498 71.3282 24.3265 71.2981 24.5995 70.967C25.0009 70.5004 24.9849 69.9284 24.5513 69.4919C24.2301 69.1607 24.0856 69.1457 22.2227 69.1457H20.2314L19.2358 68.5135C10.596 63.0947 5.00751 54.4397 3.22496 43.7376L2.95196 42.0517H39.0686H75.1692L75.105 42.3829Z" fill="#FF7F1D" stroke="#FF7F1D" stroke-width="0.5"/>
</svg>
