<svg width="79" height="79" viewBox="0 0 79 79" fill="none" xmlns="http://www.w3.org/2000/svg">
<path d="M57.8679 1.23019C57.6109 1.39577 57.2737 1.65165 57.1292 1.80218C56.9846 1.9527 54.2546 7.4317 51.0428 13.9794C47.8471 20.5121 45.0528 26.1717 44.8601 26.548L44.5068 27.2103L44.3783 26.6985C43.9608 24.8922 42.1943 22.1678 40.3957 20.5723C38.9183 19.2627 38.0511 18.6907 36.381 17.9682C31.5954 15.891 26.1193 16.3275 21.7031 19.1423C19.0533 20.8432 16.8211 23.7182 15.9379 26.6082L15.6328 27.6016L14.7495 27.9177C11.2326 29.137 8.22956 31.741 6.57549 34.9923C5.93313 36.2416 5.27471 38.2736 5.27471 39.0262C5.27471 39.6885 5.11412 39.7638 3.5564 39.809C2.19138 39.8692 2.04685 39.8993 1.5972 40.3057C0.938781 40.8927 0.874545 41.3744 1.16361 43.3462C2.88192 54.8611 8.96827 64.4946 18.2343 70.3499L19.0694 70.8616L19.1176 73.2098C19.1657 75.5278 19.1657 75.573 19.6475 76.3105C19.9526 76.7621 20.4344 77.2137 20.9162 77.4996L21.7031 77.9512L39.111 77.9964C50.8501 78.0114 56.7277 77.9813 57.1452 77.8759C58.0445 77.6502 59.0563 76.8524 59.522 76.0095C59.8913 75.3472 59.9395 75.0612 59.9877 73.3001C60.0198 72.2163 60.0359 71.2229 60.0359 71.0724C60.0359 70.9369 60.6782 70.38 61.5293 69.808C64.7893 67.5652 67.3106 65.3074 69.5428 62.5829C73.8305 57.3448 76.689 50.7218 77.781 43.5569C78.1183 41.254 78.1022 41.0884 77.4759 40.4261C76.9299 39.8692 76.9139 39.8692 75.4204 39.809C73.8466 39.7638 73.686 39.6885 73.686 39.0262C73.686 37.4759 72.048 33.8332 70.7311 32.4484C70.0727 31.756 68.7077 32.2226 68.7077 33.1408C68.7077 33.3516 69.0128 33.9537 69.3661 34.5106C70.3939 36.0158 70.9881 37.4909 71.3414 39.3122L71.4377 39.809L70.2975 39.7638L69.1574 39.7186L68.8522 38.6198C67.969 35.3385 65.0944 32.599 61.6418 31.7259C60.2767 31.3948 57.8839 31.3948 56.5189 31.741C55.459 31.9969 54.2064 32.5237 53.4196 33.0355C53.1947 33.201 52.9217 33.3215 52.8414 33.3215C52.7451 33.3215 52.4078 32.9753 52.0706 32.5538L51.4604 31.7711L51.9421 31.4249C52.713 30.8378 54.897 29.8896 56.1014 29.6186C57.5949 29.2875 60.4052 29.2875 61.8505 29.6036C62.4447 29.739 63.5367 30.1003 64.2754 30.4013C65.512 30.8981 65.6565 30.9282 66.074 30.7475C66.604 30.5067 66.877 29.9197 66.7325 29.3778C66.5397 28.6703 63.3761 27.4511 61.0797 27.1802C60.5658 27.12 60.1322 27.0146 60.1322 26.9544C60.1483 26.8791 63.3119 22.7097 67.1821 17.6973C71.0523 12.6849 74.3284 8.37998 74.4568 8.13914C74.7298 7.62737 74.6335 6.69414 74.2802 6.16731C74.1356 5.97163 73.413 5.42975 72.6582 4.94808C71.3253 4.10516 71.2772 4.0901 70.3939 4.15031C69.7194 4.21052 69.3982 4.31589 69.1092 4.58683C68.9004 4.78251 64.8214 10.3368 60.0359 16.9146C55.2503 23.4924 51.0749 29.1068 50.7538 29.3778C49.3085 30.597 48.8267 31.6055 58.976 12.3387C63.4243 3.89443 63.4404 3.84927 62.7498 2.82572C62.5089 2.43436 62.0593 2.14837 61.0315 1.68175C59.3614 0.944196 58.5424 0.823783 57.8679 1.23019ZM59.9877 3.7138L60.6782 4.04495L54.1583 16.3877C50.5932 23.1612 47.6383 28.7305 47.6062 28.7606C47.5098 28.851 46.7069 28.4596 46.7069 28.3392C46.7069 28.2639 49.2442 23.0408 52.3436 16.7339C55.459 10.412 58.1891 4.82767 58.446 4.30084C58.6869 3.78907 58.992 3.36761 59.1044 3.36761C59.2168 3.38266 59.6183 3.53318 59.9877 3.7138ZM72.0319 7.4919C71.9837 7.58222 68.5953 12.0377 64.4681 17.3661L56.9846 27.0748L56.2299 27.2554C55.8123 27.3608 55.443 27.421 55.4109 27.3909C55.3627 27.3307 69.2055 8.21441 70.2654 6.85971L70.6508 6.37804L71.3735 6.84466C71.775 7.10054 72.064 7.38654 72.0319 7.4919ZM31.9326 19.0369C34.6145 19.4433 36.9591 20.5572 38.838 22.3183C40.1548 23.5526 41.0541 24.8019 41.6644 26.262L42.0498 27.1952L41.295 27.0899C40.8935 27.0447 40.3315 26.9995 40.0585 26.9995C39.6088 26.9995 39.5125 26.9092 39.0146 25.976C38.2438 24.5611 36.381 22.8752 34.8072 22.1377C33.2173 21.4001 31.8202 21.084 30.1661 21.084C28.4318 21.084 27.3719 21.3098 25.6857 22.0624C24.6097 22.5441 24.0798 22.9053 23.0359 23.8837C22.2169 24.6514 21.5264 25.4642 21.2052 26.0362L20.6913 26.9544L19.5351 27.0447C18.8927 27.0899 18.3467 27.1049 18.3146 27.0748C18.2664 27.0447 18.6197 26.2921 19.0854 25.404C19.8242 23.9891 20.0972 23.6278 21.3819 22.4237C22.9717 20.9486 24.0798 20.2562 25.7981 19.6691C27.8697 18.9466 29.9574 18.7359 31.9326 19.0369ZM31.2903 23.4021C32.4947 23.5676 34.0845 24.2299 35.032 24.9223C35.6101 25.3589 37.0715 27.0447 37.0715 27.2855C37.0715 27.3307 36.6058 27.4963 36.0277 27.6468L34.9678 27.9027L34.0524 27.0146C32.8962 25.9158 31.756 25.4642 30.0377 25.4642C28.5121 25.4642 27.1631 26.0513 26.0711 27.1802L25.3324 27.9478L24.3367 27.6769C23.7907 27.5264 23.309 27.3758 23.2768 27.3608C23.1323 27.2554 24.1119 25.9459 24.8185 25.3287C26.2477 24.0644 27.7894 23.4623 30.0055 23.2666C30.134 23.2515 30.7121 23.3118 31.2903 23.4021ZM31.7078 28.1435C32.5589 28.5951 32.7195 28.9563 32.2217 29.2574C32.029 29.3778 31.4669 29.7842 30.9851 30.1454L30.134 30.7927L29.7004 30.4766C29.4756 30.296 28.8975 29.9046 28.4478 29.6036C27.9821 29.3025 27.5967 29.0165 27.5967 28.9413C27.5967 28.6854 28.8332 27.9027 29.4435 27.7823C30.2786 27.6016 30.8888 27.707 31.7078 28.1435ZM22.7629 29.6186C25.9747 30.3261 29.1865 32.599 30.7924 35.3234C31.4187 36.3921 32.2538 38.7402 32.2538 39.4327C32.2538 39.7789 32.2056 39.7939 31.1457 39.7939H30.0537L29.845 38.8757C29.6201 37.8973 28.7851 36.1212 28.223 35.4438C27.4522 34.5256 26.039 33.2763 25.2039 32.8097C24.7061 32.5237 23.7265 32.1022 23.0199 31.8764C21.9279 31.5302 21.4782 31.47 19.9687 31.47C16.9978 31.4851 14.8619 32.313 12.7903 34.2547C11.3771 35.5793 10.3654 37.2802 10.0442 38.8607L9.85152 39.7939H8.71133H7.57114L7.71567 38.966C8.11715 36.5426 9.75517 33.8031 11.7304 32.2227C13.802 30.582 15.6167 29.8294 18.6037 29.3477C19.2621 29.2423 21.7994 29.4079 22.7629 29.6186ZM43.4951 29.7089C46.739 30.5519 49.6617 32.7194 51.1713 35.3987C51.7334 36.4072 52.4078 38.2435 52.5524 39.1617L52.6487 39.809L51.5085 39.7638L50.3523 39.7186L50.1435 38.8155C49.0836 33.9988 43.7681 30.6873 38.5329 31.5754C36.8949 31.8463 34.9035 32.7194 33.8115 33.6225C33.3779 33.9838 32.9765 34.2095 32.9122 34.1343C32.848 34.059 32.5589 33.6677 32.2699 33.2613L31.756 32.5237L32.1253 32.1624C33.1852 31.0937 36.1722 29.7842 38.4205 29.4079C39.6088 29.2122 42.114 29.3627 43.4951 29.7089ZM22.1527 33.9988C23.2608 34.2848 24.0637 34.7213 24.9951 35.504C26.2799 36.5878 27.1149 37.8672 27.5003 39.3724L27.5967 39.7939H26.4405H25.2681L24.963 39.0262C24.6097 38.078 23.4695 36.8888 22.4418 36.3921C19.6314 35.0675 16.0985 36.2717 14.894 38.951L14.5247 39.7939H13.4166H12.3085L12.421 39.2972C12.6137 38.3489 13.6736 36.5727 14.4926 35.79C15.5043 34.8568 17.3511 33.9687 18.684 33.7881C19.792 33.6376 21.0768 33.7128 22.1527 33.9988ZM42.2907 33.9537C44.8601 34.5708 47.3011 36.934 47.7507 39.2219L47.8631 39.7939H46.7551H45.647L45.2776 38.9811C43.736 35.489 38.9022 34.7364 36.1722 37.5812C35.7868 37.9876 35.3371 38.6499 35.1926 39.0563C34.8714 39.8842 34.6627 40.0046 34.6627 39.3724C34.6627 39.1467 34.5181 38.4242 34.3575 37.7619L34.0364 36.5577L34.7108 35.9104C36.7021 33.9838 39.4643 33.2763 42.2907 33.9537ZM61.2403 33.9988C63.7134 34.6461 66.0901 36.9942 66.5397 39.237L66.6522 39.7939H65.5441H64.436L64.0667 38.9811C63.4564 37.5662 62.1396 36.4373 60.6461 36.0158C60.357 35.9255 59.6023 35.8653 58.976 35.8653C57.627 35.8653 56.4226 36.3018 55.3948 37.1598C54.9291 37.5511 54.7203 37.6565 54.6722 37.521C54.1422 36.0911 53.9334 35.504 53.9334 35.4739C53.9334 35.4589 54.2707 35.2331 54.6882 34.9621C56.5671 33.7429 58.9117 33.3967 61.2403 33.9988ZM21.6388 38.5596C21.8476 38.7101 22.2009 39.0413 22.4257 39.3122L22.8272 39.7939H19.9847H17.1584L17.3511 39.4176C17.592 38.9209 18.6358 38.2586 19.3745 38.1382C20.1132 38.0177 21.1249 38.2134 21.6388 38.5596ZM41.825 38.5295C42.387 38.8306 43.0133 39.4477 43.0133 39.7186C43.0133 39.7638 41.7928 39.7939 40.2833 39.7939C38.7898 39.7939 37.5533 39.7337 37.5533 39.6584C37.5533 39.4025 38.2277 38.7252 38.7256 38.4844C39.8658 37.9274 40.733 37.9425 41.825 38.5295ZM60.7424 38.5747C61.0636 38.7704 61.433 39.1166 61.5615 39.3574L61.8184 39.7939H59.0723C57.5146 39.7939 56.3423 39.7337 56.3423 39.6584C56.3423 39.4025 57.1934 38.5596 57.6109 38.4091C58.7993 37.9575 59.7628 38.0177 60.7424 38.5747ZM75.5488 42.3829C75.5007 42.5786 75.3883 43.2409 75.2919 43.858C74.6977 47.7415 73.2363 52.0765 71.245 55.8245C68.6595 60.7014 64.3878 65.2622 59.538 68.363L58.3336 69.1457H43.7842H29.2187L28.8975 69.537C28.3515 70.1843 28.5121 70.8315 29.315 71.2229C29.572 71.3583 33.2976 71.4035 43.5593 71.4035H57.4664V73.1195C57.4664 74.0677 57.4182 74.9558 57.3701 75.0913C57.081 75.7837 57.4182 75.7686 39.4803 75.7686C26.9543 75.7686 22.506 75.7235 22.2491 75.588C21.5746 75.2569 21.5103 75.016 21.4943 73.1797V71.4336L23.1162 71.3734C24.5937 71.3282 24.7703 71.2981 25.0433 70.967C25.4448 70.5004 25.4287 69.9284 24.9951 69.4919C24.674 69.1607 24.5294 69.1457 22.6666 69.1457H20.6753L19.6796 68.5135C11.0399 63.0947 5.45136 54.4397 3.66881 43.7376L3.39581 42.0517H39.5125H75.6131L75.5488 42.3829Z" fill="#2A3033" stroke="#2A3033" stroke-width="0.5"/>
</svg>
