<svg width="78" height="77" viewBox="0 0 78 77" fill="none" xmlns="http://www.w3.org/2000/svg">
<path d="M49.3927 9.3237C48.38 9.55805 47.5012 9.9849 47.0241 10.4703C46.8734 10.621 46.5973 10.9809 46.4131 11.2738C46.2206 11.5667 46.0616 11.8011 46.0532 11.8011C46.0365 11.8011 45.685 11.6504 45.2665 11.4663C43.9357 10.8888 43.2996 10.7633 41.8182 10.7633C40.7218 10.7549 40.4205 10.7884 39.8681 10.9474C37.9933 11.483 36.5287 12.5544 35.4071 14.2115C35.3988 14.2283 34.9803 14.1362 34.4781 14.0107C33.2394 13.701 32.2351 13.6926 31.3646 14.0107C31.0215 14.1278 30.7118 14.2283 30.6783 14.2283C30.6449 14.2283 30.4524 13.9939 30.2431 13.701C29.2974 12.3786 27.8076 11.391 26.0332 10.9139C25.1377 10.6712 23.2378 10.6879 22.4008 10.9558C20.5093 11.5416 19.0028 12.8305 18.124 14.6216L17.7808 15.3163H16.9606C14.3242 15.3163 11.9221 16.3792 10.4742 18.1871C9.8716 18.932 9.22714 20.1288 8.91747 21.0411L8.72497 21.6102L8.2228 21.56C7.93823 21.5349 7.03432 21.4847 6.20573 21.4596C4.73269 21.4177 4.69084 21.4177 4.36443 21.6102C4.1803 21.719 3.94595 21.9534 3.83714 22.1375C3.66138 22.4472 3.64464 22.5392 3.68649 23.3092C3.7953 25.3179 4.81638 29.3604 5.75377 31.4445C5.88769 31.7458 5.99649 32.0052 5.99649 32.022C5.99649 32.0387 5.81236 32.0554 5.59475 32.0554C4.52345 32.0554 3.69486 32.3735 3.04204 33.0263C2.21345 33.8633 2.01258 34.6165 2.14649 36.4495C2.79095 45.43 6.14714 53.6489 12.0309 60.6794C13.1692 62.0436 15.6968 64.6214 16.3496 65.0817C17.7892 66.1112 19.7309 66.6887 22.903 67.0151C24.2589 67.1574 25.4641 67.1658 38.7215 67.1658C51.9789 67.1658 53.1841 67.1574 54.54 67.0151C57.8292 66.672 59.863 66.0526 61.3612 64.9227C62.1228 64.3536 64.4244 61.9348 65.8054 60.2609C69.9232 55.281 72.953 49.1879 74.3675 43.0614C74.9784 40.4166 75.3216 37.8556 75.33 35.8636L75.3383 34.4408L75.0621 33.88C74.5349 32.8087 73.5975 32.1894 72.3337 32.0889L71.7311 32.0303L72.1746 30.7247C73.1539 27.8121 73.8737 23.9119 73.8737 21.4679C73.8737 20.2544 73.5891 19.9028 72.2918 19.5011C70.2245 18.865 66.9186 18.3377 64.9182 18.3294H64.2905L63.9808 17.7184C62.8091 15.4419 60.2648 13.9102 57.4275 13.7679L56.7579 13.7345L56.6156 13.316C56.0298 11.5835 54.5734 10.0853 52.8912 9.49946C52.322 9.29859 52.0877 9.26511 51.0666 9.24001C50.2799 9.22327 49.7275 9.24838 49.3927 9.3237ZM52.2216 12.4958C53.2594 12.9728 53.8704 13.8684 54.0378 15.1489C54.155 16.011 54.3726 16.3876 54.8915 16.6471C55.2179 16.7977 55.4104 16.8228 56.5152 16.8228C57.9548 16.8228 58.5323 16.9316 59.3859 17.3585C60.0388 17.6933 60.9343 18.4633 60.7334 18.5219C60.6665 18.5386 60.1225 18.6474 59.5199 18.7478C56.0967 19.3337 52.8661 20.7984 50.1376 22.9912C49.0495 23.8784 47.61 25.3765 46.9237 26.3558C46.1788 27.4187 46.1704 27.4354 46.1118 27.3015C46.0281 27.0923 45.1493 25.9122 44.689 25.3933C43.76 24.3471 42.2702 23.2339 40.9311 22.5978C40.2782 22.2798 40.2531 22.2631 40.295 22.0203C40.3117 21.8781 40.2866 21.3257 40.2364 20.79C40.069 19.1077 39.4413 17.6012 38.3867 16.396C38.1524 16.1282 37.9682 15.8771 37.9682 15.8185C37.9682 15.7683 38.2444 15.4586 38.5792 15.1238C39.6505 14.0525 40.9311 13.6089 42.4794 13.7847C43.5758 13.9102 44.3291 14.178 45.1242 14.7221C45.6766 15.0987 45.8691 15.1824 46.229 15.2159C46.4717 15.2326 46.7563 15.2326 46.8734 15.1991C47.225 15.1154 47.5765 14.7472 47.8945 14.1362C48.6478 12.6966 49.5099 12.1861 51.0331 12.253C51.5855 12.2698 51.8701 12.3284 52.2216 12.4958ZM25.0373 13.8516C26.4266 14.1446 27.908 15.1908 28.2595 16.1282C28.5357 16.8814 28.6613 17.0572 29.0379 17.2832C29.5233 17.5677 30.0757 17.5594 30.6867 17.2748C32.4862 16.4378 34.4949 16.7726 35.8675 18.1536C36.6626 18.9571 37.215 20.1623 37.215 21.1332V21.4679L35.9093 21.4428C34.3275 21.401 33.3315 21.5433 31.9338 22.012C29.0714 22.9577 26.7363 24.8409 25.1879 27.4354L24.7108 28.2222L24.1333 27.5861C23.0369 26.3725 21.5974 25.3598 19.6807 24.4308C17.7055 23.4766 15.4876 22.7569 13.0939 22.2965C12.1063 22.104 11.8552 22.0287 11.8552 21.9199C11.8552 21.8446 12.0142 21.4679 12.2067 21.0829C12.6252 20.2292 13.4036 19.4174 14.1736 19.0157C15.0775 18.5386 15.7973 18.4047 17.672 18.3377C19.5217 18.2791 19.7058 18.2289 20.0908 17.7267C20.1996 17.5761 20.3587 17.1911 20.4256 16.873C20.7018 15.6762 21.5304 14.6384 22.5933 14.1362C23.4805 13.7261 24.0915 13.6508 25.0373 13.8516ZM65.797 21.4261C67.2282 21.56 68.3079 21.7358 69.5299 22.0371L70.6514 22.3133L70.6346 23.2256C70.6012 25.3431 69.8228 28.649 68.7515 31.2352L68.4167 32.0554H63.8971H59.3776L59.6538 31.7374C60.4907 30.7749 61.8633 29.7873 63.2694 29.1261C64.2068 28.6909 64.5165 28.4147 64.6839 27.8623C64.9936 26.8161 63.9306 25.7615 62.8342 26.021C62.2316 26.1716 60.3568 27.1425 59.4864 27.7702C58.1054 28.7495 56.8081 30.1723 56.0883 31.4863L55.7787 32.0554H51.778H47.7774L47.7439 31.7374C47.6602 31.1264 48.472 29.3102 49.3676 28.105C50.6816 26.3307 52.7238 24.6316 54.9584 23.4515C57.0759 22.33 59.6119 21.627 62.3655 21.401C63.1439 21.334 64.9433 21.3508 65.797 21.4261ZM37.8929 24.7153C40.5963 25.41 42.7138 27.1258 43.9106 29.5864C44.463 30.7331 44.6137 31.2771 44.4965 31.7123L44.4044 32.0554H35.7084H27.0125L26.8786 31.796C26.753 31.5533 26.753 31.5031 26.9204 30.959C27.9248 27.6363 30.7788 25.1338 34.2019 24.5647C35.2481 24.3889 36.8718 24.4559 37.8929 24.7153ZM8.67475 24.6902C9.9553 24.799 11.964 25.1422 13.4036 25.4853C17.6971 26.5148 20.752 28.1134 22.4176 30.2225C22.9198 30.867 23.5726 31.8629 23.5726 31.9885C23.5726 32.0303 22.3004 32.0554 20.752 32.0554H17.9231L16.1571 30.2727C13.6798 27.787 13.5207 27.6447 13.119 27.5359C12.7173 27.4271 12.2067 27.5359 11.8301 27.8037C11.353 28.1469 11.127 29.0006 11.3614 29.6032C11.4032 29.7287 11.9389 30.3313 12.5499 30.9423L13.6463 32.0554H11.5371H9.42801L9.17693 31.6119C8.80867 30.9758 8.14747 29.3102 7.80432 28.1887C7.55323 27.3685 7.00084 24.9497 7.00084 24.6902C7.00084 24.5814 7.46117 24.5898 8.67475 24.6902ZM72.3253 36.0059C72.183 38.182 71.7813 40.8351 71.3544 42.4504L71.2707 42.7685H38.7299H6.18062L6.13877 42.5341C6.12203 42.4086 5.98812 41.739 5.84584 41.0444C5.53617 39.5295 5.26834 37.571 5.19301 36.1816L5.13443 35.1522H38.7633H72.3839L72.3253 36.0059ZM70.3166 46.0912C70.2915 46.2251 70.0153 46.9449 69.714 47.7065C67.6802 52.8287 64.7927 57.2144 60.8255 61.1899C59.7124 62.3031 59.2269 62.7215 58.8503 62.9224C57.779 63.4748 55.9712 63.8431 53.3682 64.0439C51.393 64.2029 25.757 64.2029 23.9492 64.0439C21.3965 63.8263 19.8481 63.5083 18.7182 62.9642C18.1742 62.6964 17.9231 62.4956 16.7932 61.3489C13.4956 58.0262 10.968 54.5026 9.0179 50.5103C8.35671 49.1712 7.6453 47.4889 7.2854 46.426L7.0929 45.8652H38.7382H70.3752L70.3166 46.0912Z" fill="#FF7F1D"/>
</svg>
