<svg width="77" height="77" viewBox="0 0 77 77" fill="none" xmlns="http://www.w3.org/2000/svg">
<path d="M48.8364 9.3237C47.8237 9.55805 46.9449 9.9849 46.4678 10.4703C46.3172 10.621 46.041 10.9809 45.8568 11.2738C45.6643 11.5667 45.5053 11.8011 45.497 11.8011C45.4802 11.8011 45.1287 11.6504 44.7102 11.4663C43.3795 10.8888 42.7434 10.7633 41.262 10.7633C40.1655 10.7549 39.8642 10.7884 39.3118 10.9474C37.4371 11.483 35.9724 12.5544 34.8509 14.2115C34.8425 14.2283 34.424 14.1362 33.9218 14.0107C32.6832 13.701 31.6788 13.6926 30.8084 14.0107C30.4652 14.1278 30.1555 14.2283 30.1221 14.2283C30.0886 14.2283 29.8961 13.9939 29.6868 13.701C28.7411 12.3786 27.2513 11.391 25.477 10.9139C24.5814 10.6712 22.6815 10.6879 21.8446 10.9558C19.953 11.5416 18.4465 12.8305 17.5677 14.6216L17.2246 15.3163H16.4043C13.7679 15.3163 11.3659 16.3792 9.91793 18.1871C9.31533 18.932 8.67087 20.1288 8.3612 21.0411L8.1687 21.6102L7.66652 21.56C7.38196 21.5349 6.47804 21.4847 5.64946 21.4596C4.17641 21.4177 4.13456 21.4177 3.80815 21.6102C3.62402 21.719 3.38967 21.9534 3.28087 22.1375C3.10511 22.4472 3.08837 22.5392 3.13022 23.3092C3.23902 25.3179 4.26011 29.3604 5.1975 31.4445C5.33141 31.7458 5.44022 32.0052 5.44022 32.022C5.44022 32.0387 5.25609 32.0554 5.03848 32.0554C3.96717 32.0554 3.13859 32.3735 2.48576 33.0263C1.65717 33.8633 1.4563 34.6165 1.59022 36.4495C2.23467 45.43 5.59087 53.6489 11.4747 60.6794C12.6129 62.0436 15.1405 64.6214 15.7934 65.0817C17.2329 66.1112 19.1747 66.6887 22.3467 67.0151C23.7026 67.1574 24.9078 67.1658 38.1652 67.1658C51.4226 67.1658 52.6278 67.1574 53.9837 67.0151C57.2729 66.672 59.3067 66.0526 60.8049 64.9227C61.5665 64.3536 63.8681 61.9348 65.2491 60.2609C69.367 55.281 72.3967 49.1879 73.8112 43.0614C74.4222 40.4166 74.7653 37.8556 74.7737 35.8636L74.7821 34.4408L74.5059 33.88C73.9786 32.8087 73.0412 32.1894 71.7774 32.0889L71.1748 32.0303L71.6184 30.7247C72.5976 27.8121 73.3174 23.9119 73.3174 21.4679C73.3174 20.2544 73.0328 19.9028 71.7355 19.5011C69.6683 18.865 66.3623 18.3377 64.362 18.3294H63.7342L63.4246 17.7184C62.2528 15.4419 59.7085 13.9102 56.8712 13.7679L56.2016 13.7345L56.0593 13.316C55.4735 11.5835 54.0172 10.0853 52.3349 9.49946C51.7658 9.29859 51.5314 9.26511 50.5103 9.24001C49.7236 9.22327 49.1712 9.24838 48.8364 9.3237ZM51.6653 12.4958C52.7031 12.9728 53.3141 13.8684 53.4815 15.1489C53.5987 16.011 53.8163 16.3876 54.3352 16.6471C54.6616 16.7977 54.8541 16.8228 55.9589 16.8228C57.3985 16.8228 57.976 16.9316 58.8297 17.3585C59.4825 17.6933 60.378 18.4633 60.1772 18.5219C60.1102 18.5386 59.5662 18.6474 58.9636 18.7478C55.5404 19.3337 52.3098 20.7984 49.5813 22.9912C48.4933 23.8784 47.0537 25.3765 46.3674 26.3558C45.6225 27.4187 45.6141 27.4354 45.5555 27.3015C45.4718 27.0923 44.593 25.9122 44.1327 25.3933C43.2037 24.3471 41.7139 23.2339 40.3748 22.5978C39.722 22.2798 39.6968 22.2631 39.7387 22.0203C39.7554 21.8781 39.7303 21.3257 39.6801 20.79C39.5127 19.1077 38.885 17.6012 37.8304 16.396C37.5961 16.1282 37.412 15.8771 37.412 15.8185C37.412 15.7683 37.6882 15.4586 38.0229 15.1238C39.0942 14.0525 40.3748 13.6089 41.9231 13.7847C43.0196 13.9102 43.7728 14.178 44.5679 14.7221C45.1203 15.0987 45.3128 15.1824 45.6727 15.2159C45.9154 15.2326 46.2 15.2326 46.3172 15.1991C46.6687 15.1154 47.0202 14.7472 47.3383 14.1362C48.0915 12.6966 48.9536 12.1861 50.4768 12.253C51.0292 12.2698 51.3138 12.3284 51.6653 12.4958ZM24.481 13.8516C25.8703 14.1446 27.3517 15.1908 27.7033 16.1282C27.9795 16.8814 28.105 17.0572 28.4816 17.2832C28.9671 17.5677 29.5195 17.5594 30.1304 17.2748C31.9299 16.4378 33.9386 16.7726 35.3112 18.1536C36.1063 18.9571 36.6587 20.1623 36.6587 21.1332V21.4679L35.353 21.4428C33.7712 21.401 32.7752 21.5433 31.3775 22.012C28.5151 22.9577 26.18 24.8409 24.6316 27.4354L24.1546 28.2222L23.5771 27.5861C22.4807 26.3725 21.0411 25.3598 19.1245 24.4308C17.1492 23.4766 14.9313 22.7569 12.5376 22.2965C11.55 22.104 11.2989 22.0287 11.2989 21.9199C11.2989 21.8446 11.4579 21.4679 11.6504 21.0829C12.0689 20.2292 12.8473 19.4174 13.6173 19.0157C14.5212 18.5386 15.241 18.4047 17.1158 18.3377C18.9654 18.2791 19.1496 18.2289 19.5346 17.7267C19.6434 17.5761 19.8024 17.1911 19.8693 16.873C20.1455 15.6762 20.9741 14.6384 22.0371 14.1362C22.9242 13.7261 23.5352 13.6508 24.481 13.8516ZM65.2408 21.4261C66.672 21.56 67.7516 21.7358 68.9736 22.0371L70.0951 22.3133L70.0784 23.2256C70.0449 25.3431 69.2665 28.649 68.1952 31.2352L67.8604 32.0554H63.3409H58.8213L59.0975 31.7374C59.9345 30.7749 61.3071 29.7873 62.7131 29.1261C63.6505 28.6909 63.9602 28.4147 64.1276 27.8623C64.4373 26.8161 63.3743 25.7615 62.2779 26.021C61.6753 26.1716 59.8005 27.1425 58.9301 27.7702C57.5491 28.7495 56.2518 30.1723 55.5321 31.4863L55.2224 32.0554H51.2217H47.2211L47.1876 31.7374C47.1039 31.1264 47.9158 29.3102 48.8113 28.105C50.1253 26.3307 52.1675 24.6316 54.4022 23.4515C56.5197 22.33 59.0556 21.627 61.8092 21.401C62.5876 21.334 64.3871 21.3508 65.2408 21.4261ZM37.3366 24.7153C40.04 25.41 42.1575 27.1258 43.3543 29.5864C43.9067 30.7331 44.0574 31.2771 43.9402 31.7123L43.8481 32.0554H35.1522H26.4562L26.3223 31.796C26.1967 31.5533 26.1967 31.5031 26.3641 30.959C27.3685 27.6363 30.2225 25.1338 33.6457 24.5647C34.6918 24.3889 36.3155 24.4559 37.3366 24.7153ZM8.11848 24.6902C9.39902 24.799 11.4077 25.1422 12.8473 25.4853C17.1409 26.5148 20.1958 28.1134 21.8613 30.2225C22.3635 30.867 23.0163 31.8629 23.0163 31.9885C23.0163 32.0303 21.7441 32.0554 20.1958 32.0554H17.3668L15.6009 30.2727C13.1235 27.787 12.9645 27.6447 12.5627 27.5359C12.161 27.4271 11.6504 27.5359 11.2738 27.8037C10.7967 28.1469 10.5708 29.0006 10.8051 29.6032C10.847 29.7287 11.3826 30.3313 11.9936 30.9423L13.09 32.0554H10.9809H8.87174L8.62065 31.6119C8.25239 30.9758 7.5912 29.3102 7.24804 28.1887C6.99696 27.3685 6.44456 24.9497 6.44456 24.6902C6.44456 24.5814 6.90489 24.5898 8.11848 24.6902ZM71.769 36.0059C71.6267 38.182 71.225 40.8351 70.7982 42.4504L70.7145 42.7685H38.1736H5.62435L5.5825 42.5341C5.56576 42.4086 5.43185 41.739 5.28956 41.0444C4.97989 39.5295 4.71206 37.571 4.63674 36.1816L4.57815 35.1522H38.2071H71.8276L71.769 36.0059ZM69.7603 46.0912C69.7352 46.2251 69.459 46.9449 69.1577 47.7065C67.1239 52.8287 64.2364 57.2144 60.2692 61.1899C59.1561 62.3031 58.6706 62.7215 58.294 62.9224C57.2227 63.4748 55.4149 63.8431 52.812 64.0439C50.8367 64.2029 25.2008 64.2029 23.3929 64.0439C20.8402 63.8263 19.2918 63.5083 18.162 62.9642C17.6179 62.6964 17.3668 62.4956 16.237 61.3489C12.9393 58.0262 10.4117 54.5026 8.46163 50.5103C7.80043 49.1712 7.08902 47.4889 6.72913 46.426L6.53663 45.8652H38.182H69.8189L69.7603 46.0912Z" fill="#2A3033"/>
</svg>
