<svg width="77" height="77" viewBox="0 0 77 77" fill="none" xmlns="http://www.w3.org/2000/svg">
<path d="M36.1895 1.72991C32.6089 4.49279 30.241 8.98247 30.1833 13.1268C30.1255 16.2926 30.2988 16.638 34.2837 22.5666C38.2108 28.2651 38.8461 29.7616 39.1926 34.1362L39.3658 35.863L42.0802 33.1577C47.0468 28.2651 47.0468 24.2934 41.9069 15.3141C38.3263 8.86735 37.46 5.93179 38.3263 2.65087C38.6728 1.26943 38.9038 0.118228 38.8461 0.00310834C38.7306 -0.0544517 37.5178 0.693829 36.1895 1.72991Z" fill="#2A3033"/>
<path d="M70.271 34.0263C68.3815 35.3877 65.4041 37.4299 63.6864 38.6211L60.5372 40.8334L56.6437 39.9258C50.5171 38.5644 40.0962 37.7135 34.1414 38.1673C15.4753 39.4153 2.64961 44.9177 0.30204 52.6324C-1.41569 58.3049 4.31008 64.3746 14.502 67.6647C16.3915 68.2887 17.5939 69.0261 17.9947 69.9337C18.8536 71.8057 22.06 74.0747 25.8963 75.4361C30.0761 76.911 42.3865 77.535 47.4824 76.4572C52.1776 75.4929 57.3308 72.77 58.7049 70.5577C59.6211 69.0828 60.8235 68.3454 63.9154 67.2109C68.7251 65.4524 73.4774 62.4459 75.3097 59.95C77.1419 57.5108 77.5427 53.4833 76.2258 50.9306C74.9089 48.4347 72.275 46.0522 68.8968 44.3504L66.0912 42.9323L71.3017 39.1884C75.367 36.3521 76.5121 35.2176 76.5121 34.1398C76.5121 33.062 75.1379 31.6438 74.05 31.6438C73.8783 31.6438 72.2178 32.7216 70.271 34.0263ZM52.4638 41.9112C56.9872 42.7054 57.5598 43.1024 55.6703 44.3504C54.4679 45.0878 53.7808 45.1446 51.7768 44.6908C47.4252 43.6697 35.172 43.3293 29.5035 44.1235C18.4527 45.5984 10.7802 49.399 9.80683 53.8803C8.8907 57.8511 14.9028 62.219 24.2358 64.3746C30.3051 65.7928 46.8526 65.7928 52.9219 64.4313C67.2363 61.1412 71.9315 53.3698 62.5412 48.3779C61.3961 47.754 60.4799 47.13 60.4799 46.9598C60.4799 46.7896 61.167 46.2224 62.0259 45.7118C63.5146 44.8042 63.6864 44.8609 66.7783 46.4493C68.496 47.3569 70.3283 48.3779 70.7863 48.775C81.0927 57.3406 67.0073 67.0974 42.73 68.2887C23.3197 69.253 4.8254 63.4103 2.87864 55.6956C1.33268 49.6826 13.2995 43.0457 28.7591 41.2872C34.2559 40.6632 47.3679 41.0036 52.4638 41.9112ZM37.5768 45.8253C37.5768 46.1089 36.8325 46.3925 35.9736 46.3925C33.5688 46.3925 26.6979 48.3212 23.6059 49.8528C19.7124 51.7248 17.9374 53.9938 18.281 56.5464C18.3955 57.681 18.6818 59.0424 18.9108 59.5529C19.1971 60.1202 19.1398 60.574 18.8536 60.574C17.7657 60.574 14.3874 57.9646 13.5858 56.4897C11.1238 52.2353 18.3382 47.5271 29.847 45.882C34.7139 45.2013 37.5768 45.1446 37.5768 45.8253ZM31.1067 70.8981C36.5462 71.3519 40.0962 71.3519 45.9365 70.8413C50.1163 70.501 53.9526 70.0472 54.4679 69.877C54.9259 69.6501 55.3267 69.7636 55.3267 70.0472C55.3267 70.7279 50.6889 72.8267 47.5969 73.5642C43.2454 74.5852 37.8631 74.8689 33.397 74.2449C28.4156 73.5642 22.6326 71.5221 22.2318 70.2741C22.06 69.7068 22.2318 69.5934 22.9761 69.877C23.4914 70.0472 27.2132 70.501 31.1067 70.8981Z" fill="#2A3033"/>
</svg>
